<?xml version="1.0" standalone="no"?>
<!DOCTYPE svg PUBLIC "-//W3C//DTD SVG 20010904//EN"
 "http://www.w3.org/TR/2001/REC-SVG-20010904/DTD/svg10.dtd">
<svg version="1.0" xmlns="http://www.w3.org/2000/svg"
 width="576.000000pt" height="576.000000pt" viewBox="0 0 576.000000 576.000000"
 preserveAspectRatio="xMidYMid meet">

<g transform="translate(0.000000,576.000000) scale(0.100000,-0.100000)"
fill="#000000" stroke="none">
<path d="M0 2880 l0 -2880 2880 0 2880 0 0 2880 0 2880 -2880 0 -2880 0 0
-2880z m2942 1613 c34 -31 21 -53 -105 -182 -146 -149 -212 -227 -304 -358
-81 -116 -97 -144 -168 -288 -55 -112 -115 -276 -115 -317 -1 -13 -7 -34 -14
-47 l-13 -23 -7 32 c-17 90 11 384 56 570 51 214 128 388 229 522 33 43 61 79
62 79 2 2 290 25 331 27 16 1 38 -5 48 -15z m792 -285 c38 -35 206 -274 206
-294 0 -23 -29 -54 -50 -54 -9 0 -95 -20 -190 -44 -473 -121 -902 -314 -1153
-520 -26 -21 -50 -36 -54 -33 -5 6 47 81 98 142 9 11 53 63 97 115 248 297
594 551 919 675 48 19 91 34 95 35 4 0 18 -10 32 -22z m-1859 -258 c14 -15 20
-45 26 -118 14 -182 66 -386 143 -564 9 -21 12 -38 7 -38 -19 0 -158 120 -251
216 -54 56 -106 121 -119 148 l-24 50 22 64 c28 75 85 196 113 234 23 33 57
36 83 8z m-266 -775 c36 -25 72 -45 81 -45 9 0 20 -4 26 -9 10 -10 179 -57
239 -67 84 -14 81 -17 -60 -58 -194 -57 -233 -69 -255 -76 -63 -22 -139 -31
-161 -19 -21 11 -22 15 -15 116 9 151 26 197 76 202 3 1 34 -19 69 -44z m2468
-5 c12 -8 24 -23 27 -34 8 -29 -14 -296 -27 -330 -10 -28 -11 -28 -71 -23 -34
4 -108 13 -166 22 -58 8 -139 20 -180 25 -41 5 -122 17 -180 25 -119 17 -198
28 -350 49 -58 8 -157 22 -220 31 -63 9 -144 21 -180 25 -36 5 -101 14 -144
20 -94 13 -114 22 -66 31 121 23 349 61 510 84 58 9 130 20 160 25 30 6 96 15
145 21 50 5 131 15 180 20 202 24 256 27 395 25 101 -2 152 -7 167 -16z
m-2027 -374 c0 -2 -29 -64 -64 -137 -75 -158 -148 -338 -179 -444 -25 -82 -46
-115 -76 -115 -38 0 -63 58 -101 235 -28 127 -26 133 69 224 111 107 351 269
351 237z m498 -75 c306 -217 721 -409 1137 -525 97 -27 129 -38 143 -48 24
-20 12 -58 -35 -116 -153 -188 -185 -222 -207 -222 -61 0 -291 117 -440 223
-249 177 -521 459 -679 704 -46 72 -41 71 81 -16z m-298 -4 c1 -48 50 -209
106 -345 110 -266 242 -463 489 -726 78 -83 144 -159 148 -168 13 -36 -22 -54
-143 -72 -63 -10 -134 -22 -157 -27 -69 -15 -117 -11 -136 11 -94 110 -191
284 -241 433 -20 61 -62 233 -75 312 -30 183 -39 536 -16 597 9 23 25 13 25
-15z"/>
</g>
</svg>
